<?xml version="1.0" encoding="UTF-8"?>
<svg id="Layer_1" xmlns="http://www.w3.org/2000/svg" version="1.1" viewBox="0 0 98.4 98.3">
  <!-- Generator: Adobe Illustrator 30.2.0, SVG Export Plug-In . SVG Version: 2.1.1 Build 105)  -->
  <path d="M98,13.9l-2.7-2.7.8-1.2h0c1.1-1.7.8-3.9-.6-5.3l-1.8-1.8c-1.4-1.4-3.6-1.6-5.3-.6l-1.2.8-2.7-2.7c-.6-.6-1.6-.6-2.2,0-.6.6-.6,1.6,0,2.2l2.2,2.2-2.5,1.6-1.8-1.8c-.6-.6-1.6-.6-2.2,0-.6.6-.6,1.6,0,2.2l1.3,1.3-.4.3h0c-1.8,1.1-2.4,3.4-1.6,5.3l-19.2,17.9-3.3-3.3h0c-2.6-2.6-6.2-4.1-10-4.1s-7.3,1.5-10,4.1l-1.1,1.1c-1.4,1.5-2.6,3.2-3.3,5.1-2.2,5.9-6.5,9.4-12.1,9.8-4.6.3-9,2.3-12.3,5.5l-.4.4c-3.7,3.7-5.8,8.7-5.8,13.9s2.1,10.2,5.8,13.9l14.4,14.4c3.7,3.7,8.8,5.8,14.1,5.8s10.3-2.1,14.1-5.8c3.4-3.4,5.4-7.9,5.5-12.8.1-7.6,5.2-10.9,9.4-12.3h0c2.2-.7,4.2-2,5.9-3.6,2.8-2.8,4.4-6.7,4.4-10.7s-1.6-7.9-4.4-10.7l-2.3-2.3,7.4-7.9h0c.5-.6.5-1.6-.1-2.1-.6-.6-1.5-.6-2.1,0l-18.4,19.6c-1.1-2.1-2.8-3.8-4.9-4.9l30.8-28.8,3,3-5.7,6.1h0c-.6.6-.6,1.6,0,2.2.6.6,1.6.6,2.2,0l5.8-6.2c.5.2,1.1.4,1.7.4s.3,0,.5,0c1.3-.1,2.4-.8,3.1-1.9l.3-.4,1.3,1.3h0c.6.6,1.6.6,2.2,0,.6-.6.6-1.6,0-2.2l-1.8-1.8,1.6-2.5,2.2,2.2c.6.5,1.6.5,2.1,0,.6-.6.6-1.5,0-2.1h0ZM51.6,55c0,3.9-2.8,7.2-6.6,8-3.8.8-7.6-1.3-9.1-4.9-1.5-3.6-.2-7.8,3-9.9,3.2-2.2,7.6-1.7,10.3,1,1.5,1.5,2.4,3.6,2.4,5.8h0ZM43.5,43.7c-4.6,0-8.7,2.8-10.4,7-1.7,4.2-.8,9.1,2.4,12.3,3.2,3.2,8.1,4.2,12.3,2.4,4.2-1.7,7-5.9,7-10.4s0-1.2-.1-1.7l10-10.7,2.2,2.2c2.2,2.2,3.5,5.3,3.5,8.5s-1.3,6.2-3.5,8.5c-1.3,1.3-2.9,2.3-4.7,2.9-3.5,1.2-6.3,3.1-8.3,5.6-2.1,2.6-3.2,5.9-3.2,9.6h0c0,4-1.7,7.8-4.6,10.6-3.1,3.1-7.4,4.9-11.9,4.9s-8.7-1.8-11.9-4.9l-14.4-14.4c-3.1-3.1-4.8-7.3-4.8-11.7s1.7-8.6,4.8-11.7l.4-.4h0c2.8-2.7,6.4-4.4,10.3-4.6,6.9-.5,12.2-4.7,14.8-11.8.6-1.5,1.4-2.9,2.6-4l1.1-1.1h0c4.3-4.3,11.3-4.3,15.6,0l3.3,3.3-10.7,10h0c-.6,0-1.2-.1-1.7-.1h0ZM86.6,18.3c-.3,0-.7,0-.9-.3l-5.2-5.2c-.2-.2-.3-.6-.3-.9,0-.3.2-.6.5-.8l9.5-6.1c.4-.3,1-.2,1.4.1l1.8,1.8h0c.4.4.4.9.1,1.4l-6.1,9.5c-.2.3-.5.5-.8.5h0Z"/>
  <path d="M20.9,61c-.9,0-1.8.4-2.4,1l-1.7,1.7h0c-.6.6-1,1.5-1,2.4s.4,1.8,1,2.4l1.2,1.2c.6.6,1,1.4,1,2.2.2,1.5.9,3,1.9,4.1l1.5,1.5c1.1,1.1,2.5,1.8,4,1.9h0,0c.8,0,1.6.5,2.2,1l1.2,1.2c.6.6,1.5,1,2.4,1s1.8-.4,2.4-1l1.7-1.7h0c1.3-1.3,1.3-3.4,0-4.8l-13.1-13.1c-.6-.6-1.5-1-2.4-1h0ZM34.2,77.6l-1.7,1.7h0s-.1,0-.2,0-.1,0-.2,0l-1.2-1.2c-1.1-1.1-2.5-1.8-4-1.9h0c-.8,0-1.6-.5-2.2-1l-1.5-1.5c-.6-.6-1-1.4-1-2.2-.2-1.5-.8-3-1.9-4.1l-1.2-1.2h0s0-.1,0-.2,0-.1,0-.2l1.7-1.7h0s.1,0,.2,0c0,0,.1,0,.2,0l13.1,13.1s0,.1,0,.2,0,.1,0,.2h0Z"/>
</svg>