<?xml version="1.0" encoding="UTF-8"?>
<svg id="Layer_1" xmlns="http://www.w3.org/2000/svg" version="1.1" viewBox="0 0 98.8 96.7">
  <!-- Generator: Adobe Illustrator 30.2.0, SVG Export Plug-In . SVG Version: 2.1.1 Build 105)  -->
  <path d="M98.6,1.5c-.3-.5-.8-.8-1.3-.8l-9.3-.4h0c-.4,0-.9.1-1.2.5l-1.3,1.3-1.6-1.6c-.6-.6-1.6-.6-2.2,0-.6.6-.6,1.6,0,2.2l1.6,1.6-2,2-1.6-1.6c-.6-.6-1.6-.6-2.2,0-.6.6-.6,1.6,0,2.2l1.6,1.6-2,2-1.6-1.6c-.6-.5-1.5-.4-2.1.1-.6.6-.6,1.4-.1,2.1l1.6,1.6-1.4,1.4-29.4,28.7c0-.7,0-1.4.2-2.1l1.3-6c.7-3.3-1.1-6.6-4.3-7.8-3.2-1.1-6.7.2-8.3,3.2l-3.7,7.2h0c-2.4,4.5-6.5,7.9-11.4,9.3l-4.4,1.2c-4.7,1.3-8.6,4.4-11.1,8.6-2.5,4.2-3.2,9.1-2.2,13.9,1.6,6.8,5.2,12.9,10.3,17.6,5.1,4.7,11.6,7.7,18.5,8.6,3.5.5,7.1-.4,10.1-2.3,3-2,5.1-4.9,6.1-8.3l1.8-6.3h0c1.2-4.3,4.2-7.8,8.3-9.7h0s3.8-2,3.8-2c3-1.6,4.7-4.9,4.1-8.2-.6-3.4-3.3-5.9-6.6-6.4-1.3-.2-2.6-.5-3.8-1l4.3-4.4c.6-.6.6-1.6,0-2.2-.6-.6-1.6-.6-2.2,0l-15.1,15.4s0,0-.1,0c0,0,0,0-.1,0l-4.7-4.7c0,0,0-.2,0-.3l39.8-38.9,4.1,4.1-19,19.4c-.6.6-.6,1.6,0,2.2.6.6,1.6.6,2.2,0l19.8-20.2,6.2-.8h0c.5,0,1-.4,1.2-.8l9.4-18.3c.2-.5.2-1,0-1.5h0ZM32.8,53.9c-.6.6-1,1.5-1,2.4,0,.9.3,1.7,1,2.4l4.7,4.7c.6.6,1.5,1,2.3,1h0c.9,0,1.7-.4,2.3-1l8.4-8.6h0c1.8.9,3.8,1.4,5.8,1.7,2,.3,3.6,1.8,4,3.8.3,2-.7,4-2.5,4.9l-3.8,1.9c-4.9,2.2-8.5,6.5-10,11.7l-1.8,6.3h0c-1.6,5.6-7,9.1-12.7,8.4-6.3-.8-12.1-3.6-16.8-7.8-4.7-4.3-7.9-9.8-9.4-16-.9-3.9-.3-8.1,1.8-11.6,2.1-3.5,5.4-6,9.3-7.2l4.4-1.2c5.8-1.6,10.6-5.6,13.3-10.9l3.7-7.2h0c.8-1.6,2.7-2.3,4.4-1.7,1.7.6,2.7,2.4,2.3,4.2l-1.3,6c-.4,1.8-.3,3.6.2,5.4l-8.8,8.6ZM86.9,19.1l-5.2.6-4.6-4.6,11.6-11.6,6.1.2-7.9,15.3Z"/>
  <path d="M23.5,60.5c-.6.6-.6,1.6,0,2.2l9.9,9.9c.6.6,1.6.6,2.2,0,.6-.6.6-1.6,0-2.2l-9.9-9.9h0c-.3-.3-.7-.5-1.1-.5s-.8.2-1.1.5h0Z"/>
  <path d="M19.2,67c-.3-.3-.7-.5-1.1-.5-.4,0-.8.2-1.1.5-.3.3-.5.7-.5,1.1,0,.4.2.8.5,1.1l9.9,9.9c.6.6,1.6.6,2.2,0s.6-1.6,0-2.2l-9.9-9.9Z"/>
</svg>